<svg width="22" height="22" viewBox="0 0 22 22" fill="none" xmlns="http://www.w3.org/2000/svg">
<path d="M4.52939 5.70596H3.35293C2.72889 5.70596 2.13042 5.95386 1.68916 6.39512C1.2479 6.83638 1 7.43485 1 8.05889V18.6471C1 19.2711 1.2479 19.8696 1.68916 20.3108C2.13042 20.7521 2.72889 21 3.35293 21H13.9411C14.5651 21 15.1636 20.7521 15.6049 20.3108C16.0461 19.8696 16.294 19.2711 16.294 18.6471V17.4706" stroke="#7C7C7C" stroke-width="2" stroke-linecap="round" stroke-linejoin="round"/>
<path d="M15.1176 3.35305L18.6469 6.88244M20.2763 5.21775C20.7397 4.7544 21 4.12597 21 3.4707C21 2.81543 20.7397 2.187 20.2763 1.72365C19.813 1.2603 19.1846 1 18.5293 1C17.874 1 17.2456 1.2603 16.7822 1.72365L6.88231 11.5883V15.1177H10.4117L20.2763 5.21775Z" stroke="#7C7C7C" stroke-width="2" stroke-linecap="round" stroke-linejoin="round"/>
</svg>
