<svg width="22" height="22" viewBox="0 0 22 22" fill="none" xmlns="http://www.w3.org/2000/svg">
<path d="M11 13.75C12.5188 13.75 13.75 12.5188 13.75 11C13.75 9.48122 12.5188 8.25 11 8.25C9.48122 8.25 8.25 9.48122 8.25 11C8.25 12.5188 9.48122 13.75 11 13.75Z" fill="#7C7C7C"/>
<path d="M21.2712 10.7662C20.4626 8.67463 19.0589 6.8658 17.2334 5.56331C15.408 4.26082 13.2409 3.52177 11 3.4375C8.7591 3.52177 6.59201 4.26082 4.76657 5.56331C2.94113 6.8658 1.53736 8.67463 0.728747 10.7662C0.674137 10.9173 0.674137 11.0827 0.728747 11.2338C1.53736 13.3254 2.94113 15.1342 4.76657 16.4367C6.59201 17.7392 8.7591 18.4782 11 18.5625C13.2409 18.4782 15.408 17.7392 17.2334 16.4367C19.0589 15.1342 20.4626 13.3254 21.2712 11.2338C21.3259 11.0827 21.3259 10.9173 21.2712 10.7662ZM11 15.4688C10.1162 15.4687 9.25218 15.2067 8.51729 14.7156C7.78241 14.2246 7.20964 13.5267 6.87141 12.7101C6.53318 11.8936 6.44469 10.995 6.61711 10.1282C6.78954 9.26134 7.21515 8.46508 7.84011 7.84012C8.46508 7.21515 9.26134 6.78954 10.1282 6.61712C10.995 6.44469 11.8936 6.53318 12.7101 6.87141C13.5267 7.20964 14.2246 7.78241 14.7156 8.5173C15.2067 9.25218 15.4687 10.1162 15.4687 11C15.4669 12.1846 14.9955 13.3202 14.1579 14.1579C13.3202 14.9955 12.1846 15.4669 11 15.4688Z" fill="#7C7C7C"/>
</svg>
